<svg width="214" height="124" viewBox="0 0 214 124" fill="none" xmlns="http://www.w3.org/2000/svg">
<g clip-path="url(#clip0_954_8512)">
<path d="M8.34023 92.19C4.74023 91.45 3.63023 90.91 3.63023 89.67C3.63023 88.59 5.00023 87.75 6.94023 87.75C8.76617 87.7919 10.5409 88.3615 12.0502 89.39L13.6502 87.15C11.6764 85.8605 9.35723 85.2014 7.00023 85.26C3.25023 85.26 0.820236 87.13 0.820236 89.91C0.820236 92.43 2.82024 93.91 6.82024 94.7C10.3202 95.37 11.3402 95.99 11.3402 97.15C11.3402 98.31 9.77023 99.15 7.74023 99.15C5.58355 99.149 3.49042 98.4196 1.80023 97.08L-0.00976562 99.22C2.22422 100.82 4.91262 101.661 7.66023 101.62C11.6602 101.62 14.1402 99.86 14.1402 96.85C14.1602 94.58 12.3302 93.01 8.34023 92.19Z" fill="#1D1D1B"/>
<path d="M80.2195 95.6202C82.8495 95.2002 84.7195 93.7302 84.7195 90.8502C84.7195 87.5802 82.3795 85.4902 78.6595 85.4902H69.2695V87.2802L71.3495 87.6002V99.3302L69.2695 99.6502V101.43H76.2195V99.6502L74.1395 99.3302V95.7702H77.1395C78.6482 98.2975 80.5447 100.572 82.7595 102.51C83.9527 103.449 85.3793 104.045 86.8858 104.233C88.3924 104.422 89.9218 104.196 91.3095 103.58V101.49C86.6095 103.31 83.6595 100.86 80.2195 95.6202ZM74.1595 88.0402H78.4495C80.5495 88.0402 81.8895 89.0402 81.8895 90.9102C81.8895 92.6202 80.5695 93.7802 78.4495 93.7802H74.1595V88.0402Z" fill="#1D1D1B"/>
<path d="M29.6803 101.71C28.5881 101.74 27.5011 101.548 26.4848 101.147C25.4684 100.746 24.5438 100.143 23.7665 99.3749C22.9893 98.6069 22.3754 97.6897 21.9619 96.6783C21.5483 95.6669 21.3437 94.5823 21.3603 93.4898C21.3365 91.8345 21.8058 90.2096 22.7085 88.822C23.6112 87.4343 24.9065 86.3467 26.4293 85.6976C27.9522 85.0485 29.6338 84.8673 31.2599 85.1771C32.8861 85.4868 34.3833 86.2735 35.561 87.437C36.7386 88.6004 37.5433 90.088 37.8727 91.7104C38.2021 93.3327 38.0412 95.0163 37.4106 96.5469C36.7799 98.0775 35.7081 99.3858 34.3315 100.305C32.9548 101.225 31.3357 101.714 29.6803 101.71ZM29.6803 87.7998C28.9505 87.8003 28.2283 87.9488 27.5575 88.2363C26.8867 88.5238 26.2811 88.9443 25.7773 89.4723C25.2735 90.0004 24.882 90.6251 24.6265 91.3088C24.3709 91.9924 24.2565 92.7207 24.2903 93.4498C24.2621 94.183 24.3818 94.9145 24.6422 95.6006C24.9025 96.2867 25.2983 96.9134 25.8059 97.4434C26.3134 97.9733 26.9225 98.3957 27.5967 98.6854C28.2709 98.9752 28.9965 99.1263 29.7303 99.1298C30.458 99.1278 31.1777 98.9786 31.8462 98.691C32.5146 98.4035 33.1179 97.9835 33.6197 97.4565C34.1215 96.9295 34.5114 96.3063 34.7658 95.6246C35.0203 94.9429 35.1341 94.2167 35.1003 93.4898C35.1312 92.757 35.0142 92.0255 34.7562 91.3389C34.4982 90.6524 34.1045 90.0249 33.5986 89.4938C33.0928 88.9627 32.4851 88.539 31.8119 88.248C31.1387 87.9569 30.4137 87.8045 29.6803 87.7998Z" fill="#1D1D1B"/>
<path d="M53.9005 92.53V94.53H57.9705V97.97C56.8514 98.7708 55.5065 99.1946 54.1305 99.18C50.8605 99.18 48.7005 96.75 48.7005 93.46C48.6656 92.748 48.7723 92.036 49.0144 91.3655C49.2565 90.695 49.6293 90.0792 50.111 89.5537C50.5928 89.0282 51.174 88.6035 51.8211 88.3042C52.4681 88.0049 53.1681 87.8369 53.8805 87.81C54.6992 87.7858 55.5146 87.9234 56.28 88.2152C57.0454 88.5069 57.7456 88.9469 58.3405 89.51L60.1205 87.39C58.4377 85.896 56.2384 85.1174 53.9905 85.22C52.9024 85.2092 51.8233 85.4163 50.8166 85.8292C49.8099 86.2421 48.8961 86.8525 48.1291 87.6242C47.362 88.3959 46.7573 89.3134 46.3505 90.3225C45.9437 91.3317 45.7431 92.4121 45.7605 93.5C45.7194 94.5948 45.9055 95.6862 46.3073 96.7054C46.709 97.7246 47.3175 98.6495 48.0945 99.4219C48.8716 100.194 49.8002 100.797 50.8218 101.193C51.8435 101.588 52.936 101.768 54.0305 101.72C56.4769 101.724 58.8423 100.843 60.6905 99.24V92.54L53.9005 92.53Z" fill="#1D1D1B"/>
<path d="M110.73 99.3701L104.61 85.3701H102.01L95.8903 99.3701L94.0303 99.6601V101.44H100.46V99.6601L98.7503 99.4001L99.9303 96.6001H106.61L107.79 99.3701L105.91 99.6601V101.44H112.52V99.6601L110.73 99.3701ZM100.73 94.6001L103.23 88.7301L105.72 94.6001H100.73Z" fill="#1D1D1B"/>
<path d="M152.96 96.87L152.64 98.93H145.61V94.45H151.62V92.47H145.61V87.99H152.52L152.84 90.05H154.63V85.48H140.74V87.28L142.81 87.59V99.33L140.74 99.64V101.43H154.75V96.87H152.96Z" fill="#1D1D1B"/>
<path d="M128 85.4902H119.3V87.2802L121.36 87.6002V99.3302L119.3 99.6502V101.43H126.24V99.6502L124.17 99.3302V95.7702H127.68C131.19 95.7702 134.05 94.4502 134.05 90.8502C134.05 87.5802 131.71 85.4902 128 85.4902ZM127.76 93.7802H124.16V88.0402H127.75C129.87 88.0402 131.21 89.0402 131.21 90.9102C131.22 92.6202 129.89 93.7802 127.76 93.7802Z" fill="#1D1D1B"/>
<path d="M144.1 40.9502C145.37 48.8002 136.29 49.1602 133.33 47.9502C135.76 46.3102 134.95 45.0702 136.33 43.7202C137.97 42.1202 135.84 41.4402 135.22 42.4802C133.36 45.5602 126.51 46.1502 122.44 39.6802C125.21 39.7302 125.05 38.2702 127.67 38.3202C128.99 38.3202 129.14 36.4202 127.15 36.7302C124.64 37.1302 120.51 34.5102 120.51 27.6702C124.06 30.9802 125.51 28.4702 128.72 29.0602C131.3 29.5402 131.15 30.3802 132.19 31.0602C133.23 31.7402 134.14 30.3002 132.78 29.5402C130 27.9602 130.78 25.5402 131.29 23.4702C133.29 26.8502 143.36 21.2702 140.79 30.2102C140.36 31.7102 141.93 32.2102 142.04 30.8202C142.25 27.9902 145.23 28.0002 144.91 25.0302C148.16 26.2902 151.43 36.3402 144.37 37.4902C142.138 36.0791 139.463 35.5414 136.86 35.9802C139.616 36.4637 142.223 37.5758 144.48 39.2302C147.86 41.7402 151.02 44.9002 156.78 45.7802C150.46 45.9902 147.61 42.7202 143.93 40.0102C143.99 40.3402 144.06 40.6502 144.1 40.9502ZM122.04 23.2902C121.2 21.2202 121.51 19.8202 121.78 19.6102C123.86 24.7602 127.08 26.6102 128.97 27.0402C126.946 25.7528 125.214 24.0568 123.885 22.0609C122.556 20.065 121.658 17.8133 121.25 15.4502C121.738 16.6948 122.412 17.8581 123.25 18.9002C123.84 19.2511 124.348 19.7246 124.74 20.2888C125.131 20.8529 125.397 21.4945 125.52 22.1702C126.86 22.1702 129.73 20.6602 128.89 17.7002C128.89 17.7002 127.77 17.7002 126.89 17.7002C126.01 17.7002 126 16.8902 126.7 16.7702C128.7 16.4402 130.7 13.1302 126.44 10.6902C125.55 12.6902 124.71 11.9402 124.13 13.4302C123.71 14.5002 122.68 14.0302 123.13 13.1602C123.46 12.5802 124.02 11.8602 123.62 11.0902C123.22 10.3202 120.11 9.01017 119.62 8.36017C118.26 9.57017 116.56 12.1102 116.96 13.3602C117.16 13.9602 117.45 14.1002 118.23 14.4802C119.4 15.0602 118.48 16.0302 117.81 15.3002C116.81 14.2102 115.48 15.0302 114.69 13.5702C111.79 17.1602 114.88 21.3502 117.17 19.5702C117.73 19.1302 118.23 19.6802 117.91 20.2402C117.483 20.9125 117.019 21.5602 116.52 22.1802C117.36 23.7402 120.58 24.6102 122.04 23.2902ZM160.3 19.2202C156.069 16.512 151.181 15.0049 146.16 14.8602C145.51 14.8602 144.9 14.8602 144.31 14.8602C142.98 21.1602 134.02 20.5402 134.66 17.2102C134.98 15.5602 136.77 13.6902 142.66 13.2102C142.31 -3.03983 114.22 10.9602 109.6 -0.0698242C116.54 9.24018 144.4 -4.70983 144.52 13.1102C145.226 13.1102 145.986 13.1102 146.8 13.1102C150.958 13.1773 155.044 14.204 158.74 16.1102C158.055 14.8808 157.518 13.5751 157.14 12.2202C156.835 12.2288 156.53 12.2087 156.23 12.1602C152.77 11.6002 151.69 7.52017 152.23 5.47017C152.45 7.27017 153.46 10.4702 156.32 10.7602C156.503 10.7696 156.686 10.7696 156.87 10.7602C156.47 7.08016 158.87 5.96017 159.64 6.06017C161.7 6.31017 161.28 10.8602 158.34 11.9602C159.073 13.8358 160.144 15.561 161.5 17.0502C160.919 17.6576 160.505 18.4052 160.3 19.2202ZM157.94 10.7002C158.682 10.4558 159.312 9.95534 159.719 9.28844C160.126 8.62154 160.282 7.83167 160.16 7.06017C159.94 5.71017 157.29 7.05016 157.94 10.7002ZM142.46 14.9902C137.02 15.2902 135.29 16.3102 135.46 17.7002C135.74 19.2802 141.42 19.4902 142.46 14.9902ZM174.66 28.8602C174.602 29.2234 174.691 29.5947 174.906 29.8928C175.122 30.1908 175.447 30.3912 175.81 30.4502C176.079 30.4919 176.354 30.453 176.601 30.3385C176.848 30.224 177.056 30.039 177.198 29.8068C177.34 29.5745 177.41 29.3054 177.4 29.0333C177.389 28.7612 177.299 28.4983 177.139 28.2777C176.98 28.0571 176.758 27.8886 176.503 27.7934C176.248 27.6983 175.97 27.6807 175.705 27.743C175.44 27.8053 175.2 27.9446 175.013 28.1434C174.827 28.3422 174.704 28.5916 174.66 28.8602ZM172.95 24.8602C172.89 25.2555 172.989 25.6583 173.224 25.9814C173.46 26.3044 173.813 26.5217 174.208 26.5862C174.602 26.6506 175.006 26.557 175.332 26.3257C175.658 26.0943 175.88 25.7439 175.95 25.3502C175.985 25.152 175.98 24.9488 175.936 24.7525C175.892 24.5562 175.809 24.3706 175.692 24.2065C175.576 24.0423 175.428 23.903 175.257 23.7964C175.087 23.6899 174.896 23.6184 174.698 23.5859C174.499 23.5535 174.296 23.5608 174.1 23.6075C173.905 23.6541 173.72 23.7392 173.557 23.8577C173.395 23.9763 173.257 24.1259 173.153 24.298C173.049 24.4701 172.98 24.6612 172.95 24.8602ZM171.31 29.9902C171.755 30.0644 172.212 29.9587 172.58 29.6961C172.947 29.4336 173.195 29.0357 173.27 28.5902C173.344 28.1446 173.238 27.6878 172.976 27.3202C172.713 26.9527 172.315 26.7044 171.87 26.6302C171.649 26.5934 171.423 26.6005 171.205 26.6509C170.987 26.7014 170.782 26.7942 170.6 26.9242C170.418 27.0542 170.263 27.2188 170.145 27.4086C170.026 27.5983 169.946 27.8096 169.91 28.0302C169.873 28.2508 169.88 28.4765 169.93 28.6944C169.981 28.9123 170.074 29.1181 170.204 29.3001C170.334 29.4821 170.498 29.6367 170.688 29.7551C170.878 29.8735 171.089 29.9534 171.31 29.9902ZM171.17 24.0702C171.226 23.7209 171.177 23.3627 171.029 23.0414C170.881 22.7202 170.64 22.4503 170.338 22.2663C170.036 22.0824 169.685 21.9926 169.332 22.0086C168.979 22.0246 168.638 22.1455 168.353 22.356C168.069 22.5664 167.854 22.8568 167.735 23.1902C167.617 23.5235 167.6 23.8846 167.688 24.2274C167.775 24.5702 167.963 24.8791 168.227 25.1147C168.491 25.3503 168.819 25.5019 169.17 25.5502C169.621 25.612 170.08 25.4982 170.45 25.2321C170.82 24.966 171.074 24.5681 171.16 24.1202L171.17 24.0702ZM172.23 22.3402C172.546 22.3937 172.872 22.3519 173.165 22.2202C173.457 22.0884 173.705 21.8725 173.874 21.6C174.044 21.3274 174.129 21.0106 174.119 20.6896C174.108 20.3686 174.003 20.058 173.815 19.7972C173.628 19.5365 173.367 19.3373 173.066 19.225C172.765 19.1128 172.438 19.0925 172.125 19.1668C171.813 19.241 171.529 19.4065 171.311 19.6421C171.093 19.8778 170.95 20.1729 170.9 20.4902C170.858 20.7027 170.86 20.9213 170.904 21.1331C170.949 21.345 171.036 21.5456 171.161 21.723C171.285 21.9003 171.443 22.0509 171.627 22.1655C171.811 22.2801 172.016 22.3566 172.23 22.3902V22.3402ZM164.63 22.6802C165.079 22.7577 165.541 22.6999 165.958 22.514C166.374 22.3282 166.726 22.0227 166.969 21.6364C167.211 21.2501 167.333 20.8005 167.32 20.3446C167.306 19.8887 167.157 19.4472 166.892 19.0761C166.627 18.7051 166.257 18.4213 165.83 18.2608C165.403 18.1003 164.938 18.0703 164.494 18.1747C164.05 18.2791 163.647 18.5132 163.337 18.8471C163.026 19.181 162.822 19.5998 162.75 20.0502C162.695 20.3498 162.701 20.6573 162.766 20.9547C162.831 21.2522 162.955 21.5338 163.129 21.7831C163.304 22.0324 163.527 22.2445 163.785 22.4071C164.042 22.5697 164.329 22.6795 164.63 22.7302V22.6802ZM169.28 18.8502C169.674 18.8214 170.051 18.6764 170.363 18.4333C170.675 18.1903 170.908 17.8602 171.033 17.4847C171.157 17.1093 171.168 16.7054 171.062 16.324C170.957 15.9427 170.742 15.6011 170.442 15.3424C170.143 15.0838 169.774 14.9196 169.381 14.8708C168.989 14.8219 168.591 14.8905 168.237 15.068C167.884 15.2454 167.591 15.5237 167.395 15.8676C167.2 16.2115 167.111 16.6057 167.14 17.0002C167.157 17.263 167.227 17.5198 167.344 17.7557C167.461 17.9917 167.624 18.2021 167.823 18.3749C168.022 18.5477 168.253 18.6796 168.503 18.7629C168.753 18.8461 169.017 18.8792 169.28 18.8602V18.8502ZM166.52 25.3802C166.133 25.3178 165.736 25.3704 165.379 25.5314C165.022 25.6925 164.72 25.9549 164.511 26.2861C164.301 26.6173 164.194 27.0026 164.202 27.3943C164.209 27.786 164.332 28.1669 164.554 28.4895C164.777 28.8121 165.089 29.0623 165.452 29.209C165.815 29.3558 166.214 29.3926 166.598 29.3149C166.982 29.2373 167.334 29.0485 167.612 28.7721C167.89 28.4957 168.08 28.1438 168.16 27.7602C168.207 27.4993 168.202 27.2316 168.145 26.9727C168.088 26.7138 167.98 26.4688 167.827 26.252C167.675 26.0351 167.48 25.8508 167.256 25.7097C167.031 25.5687 166.781 25.4736 166.52 25.4302V25.3802ZM160.44 22.2302C159.946 22.2632 159.472 22.4422 159.08 22.7446C158.688 23.0469 158.394 23.4589 158.237 23.9283C158.079 24.3977 158.064 24.9034 158.194 25.3812C158.324 25.859 158.593 26.2875 158.967 26.6122C159.341 26.9369 159.803 27.1432 160.294 27.205C160.786 27.2669 161.284 27.1814 161.727 26.9594C162.17 26.7375 162.536 26.389 162.781 25.9583C163.025 25.5276 163.136 25.034 163.1 24.5402C163.039 23.891 162.726 23.2913 162.229 22.8691C161.732 22.4469 161.09 22.2356 160.44 22.2802V22.2302ZM186.94 88.2302C186.798 87.0856 186.429 85.9809 185.853 84.9814C185.278 83.9818 184.508 83.1076 183.59 82.4102C181.347 80.7174 179.231 78.8625 177.26 76.8602C171.69 70.7002 168.95 65.8602 165.68 66.8602C165.68 65.4202 167.3 64.2502 169.85 64.2502C172.61 64.2502 173.36 66.5202 175.07 66.5502C175.305 66.5556 175.54 66.5133 175.759 66.4259C175.978 66.3385 176.177 66.2078 176.344 66.0415C176.511 65.8753 176.643 65.677 176.732 65.4585C176.82 65.24 176.864 65.0059 176.86 64.7702C176.86 60.4502 169.98 61.7702 164.28 61.9402C154.34 62.1702 147.66 55.5702 146.16 49.7602C150.49 51.0102 154.89 47.6102 158.44 47.5802C161.99 47.5502 165.2 49.7502 166.58 50.1002C169.58 50.8402 170.65 47.1802 166.81 46.6802C150.39 44.5702 150.22 34.6802 155.06 28.8102C162.64 37.9002 177.57 27.5102 180.18 44.8102C180.61 47.6502 184.01 46.9702 183.82 44.8902C183.52 41.5202 179.99 40.5102 179.99 34.8202C179.99 33.0002 181.46 30.3402 184.69 28.0602C185.58 33.7502 207.58 37.1902 197.41 48.0602C194.41 51.2702 199.9 53.6102 200.41 49.3002C200.69 46.9602 203.41 44.2302 208.79 44.1102C207.49 47.2902 210.31 51.6902 210.31 55.3202C210.31 60.8502 208.07 61.9602 208.07 64.8502C208.07 67.7402 212.36 67.1102 211.47 63.6602C212.81 64.2102 214.11 66.4702 211.65 70.8802C207.95 77.5002 201.96 81.5502 200.85 82.5302C197.63 85.3702 197.54 87.5902 197.38 89.4402C197 89.6402 195.79 90.2802 195.57 90.3502C194.51 90.6602 195.07 88.7302 194.94 87.0602C194.74 84.6002 192.79 85.3602 191.16 86.2802C189.803 87.0658 188.393 87.7542 186.94 88.3402V88.2302ZM194.7 112.62C194.7 112.4 194.48 112.09 193.87 112.06C192.871 111.99 191.868 111.99 190.87 112.06C190.03 112.124 189.198 112.274 188.39 112.51C188.39 112.15 188.39 111.8 188.34 111.51C188.34 111.43 188.26 109.83 188.2 108.83C188.2 108.19 187.68 108.16 187.41 108.49C185.918 110.441 184.016 112.042 181.84 113.18C181.1 113.59 180.35 113.58 180.55 113.09C180.75 112.6 183.81 109.68 184.3 105.16C184.67 101.66 183.57 98.5902 183.8 97.6502C184.09 96.4902 184.99 96.3502 185.66 95.3702C186.33 94.3902 186.4 93.3702 186.66 93.1302C186.92 92.8902 188.05 93.0702 189.48 92.4902C191.21 91.8002 193.32 89.5902 193.32 87.6502C193.32 87.1502 192.96 86.7402 192.4 87.1302C189.31 89.2702 186.02 89.9502 185.25 90.6502C183.339 92.5567 181.643 94.6658 180.19 96.9402C179.135 98.8287 178.392 100.875 177.99 103C177.26 107 176.81 112 173.89 115.3C172.89 116.38 172.44 116.95 172.55 117.8C172.88 120.14 176.78 122.52 177.92 122.96C180.08 123.79 181.47 121.26 181.59 120.41C181.77 119.14 181.28 118.51 181.64 118.19C181.763 118.124 181.899 118.085 182.038 118.074C182.178 118.064 182.318 118.083 182.45 118.13C183.723 118.37 185.04 118.113 186.13 117.41C187.092 116.865 187.977 116.192 188.76 115.41C188.581 114.87 188.477 114.308 188.45 113.74C189.262 113.504 190.096 113.353 190.94 113.29C191.938 113.213 192.941 113.213 193.94 113.29C194.63 113.4 194.73 112.91 194.7 112.69V112.62ZM197.27 106.62C197.27 105.83 196.86 105.41 195.91 105.69C195.58 105.79 191.81 107.55 191.43 107.69C190.87 107.94 190.2 108.4 190.31 109.08C190.372 109.309 190.514 109.508 190.71 109.642C190.906 109.776 191.144 109.835 191.38 109.81C192.652 109.676 193.911 109.428 195.14 109.07C195.98 108.86 197.16 108.68 197.27 106.66V106.62ZM198.27 101.62C198.2 100.71 197.38 100.62 196.58 100.78C194.566 101.428 192.603 102.227 190.71 103.17C189.53 103.75 188.87 104.31 188.71 104.71C188.653 104.843 188.627 104.987 188.631 105.131C188.636 105.276 188.672 105.418 188.736 105.547C188.801 105.676 188.893 105.79 189.006 105.88C189.118 105.971 189.249 106.035 189.39 106.07C190.382 106.136 191.375 105.954 192.28 105.54C192.74 105.39 195.41 104.54 195.97 104.34C197.45 103.86 198.42 103.69 198.27 101.66V101.62ZM197.97 96.4902C196.757 97.0638 195.448 97.4031 194.11 97.4902C193.81 97.4902 193.51 97.4102 193.22 97.4902C192.304 97.863 191.43 98.3287 190.61 98.8802C189.11 99.8802 190 101.46 191.3 101.11C192.6 100.76 195.57 99.8302 196.03 99.6802C197.56 99.1802 198.47 98.9002 198.85 97.8602C199.16 97.1202 198.9 96.1202 197.97 96.5302V96.4902ZM193.65 94.3502C193.34 94.9602 193.43 95.7202 194.53 95.7202C196.11 95.7202 200.41 93.3302 200.61 91.8502C200.632 91.6601 200.611 91.4676 200.548 91.2867C200.486 91.1059 200.384 90.9413 200.25 90.8051C200.115 90.6688 199.952 90.5644 199.772 90.4996C199.592 90.4347 199.4 90.411 199.21 90.4302C197.94 90.5102 194.23 93.2902 193.65 94.3902V94.3502Z" fill="#AE5B2E"/>
</g>
<defs>
<clipPath id="clip0_954_8512">
<rect width="213.03" height="123.17" fill="white"/>
</clipPath>
</defs>
</svg>
